<?xml version="1.0" encoding="UTF-8" standalone="no"?>
<!-- Generator: Adobe Illustrator 18.0.0, SVG Export Plug-In . SVG Version: 6.00 Build 0)  -->

<svg
   xmlns:dc="http://purl.org/dc/elements/1.1/"
   xmlns:cc="http://creativecommons.org/ns#"
   xmlns:rdf="http://www.w3.org/1999/02/22-rdf-syntax-ns#"
   xmlns:svg="http://www.w3.org/2000/svg"
   xmlns="http://www.w3.org/2000/svg"
   xmlns:sodipodi="http://sodipodi.sourceforge.net/DTD/sodipodi-0.dtd"
   xmlns:inkscape="http://www.inkscape.org/namespaces/inkscape"
   version="1.1"
   id="Layer_1"
   x="0px"
   y="0px"
   viewBox="0 0 64 64.000001"
   enable-background="new 0 0 64 64"
   xml:space="preserve"
   sodipodi:docname="logo.svg"
   inkscape:version="0.92.3 (2405546, 2018-03-11)"
   width="64"
   height="64"
   inkscape:export-filename="/home/pashi/dev/text/app/assets/images/splash.png"
   inkscape:export-xdpi="579.91718"
   inkscape:export-ydpi="579.91718"><metadata
   id="metadata147"><rdf:RDF><cc:Work
       rdf:about=""><dc:format>image/svg+xml</dc:format><dc:type
         rdf:resource="http://purl.org/dc/dcmitype/StillImage" /><dc:title></dc:title></cc:Work></rdf:RDF></metadata><defs
   id="defs145">
</defs><sodipodi:namedview
   pagecolor="#ffffff"
   bordercolor="#666666"
   borderopacity="1"
   objecttolerance="10"
   gridtolerance="10"
   guidetolerance="10"
   inkscape:pageopacity="0"
   inkscape:pageshadow="2"
   inkscape:window-width="1920"
   inkscape:window-height="1029"
   id="namedview143"
   showgrid="false"
   inkscape:zoom="7.375"
   inkscape:cx="23.788041"
   inkscape:cy="24.991186"
   inkscape:window-x="0"
   inkscape:window-y="27"
   inkscape:window-maximized="1"
   inkscape:current-layer="g140"
   fit-margin-top="0"
   fit-margin-left="0"
   fit-margin-right="0"
   fit-margin-bottom="0"
   inkscape:object-paths="false"
   inkscape:snap-smooth-nodes="false"
   inkscape:snap-page="true" />
<g
   id="g140"
   transform="translate(0.55172348)">
	
	
	
	
	
	
	
	
	
	
	
	
	
	
	
	
	
	
	
	
	
	
	
<g
   id="g979"
   transform="translate(-0.55172348)"><g
     style="fill:#4299e1;fill-opacity:1"
     id="g6">
		<g
   style="fill:#4299e1;fill-opacity:1"
   id="g4">
			<path
   style="fill:#4299e1;fill-opacity:1"
   id="path2"
   d="M 32,0 C 49.7,0 64,14.3 64,32 64,49.7 49.7,64 32,64 14.3,64 0,49.7 0,32 0,14.3 14.3,0 32,0 Z"
   inkscape:connector-curvature="0" />
		</g>
	</g><g
     style="fill:#2a4365;fill-opacity:1"
     id="g12">
		<g
   style="fill:#2a4365;fill-opacity:1"
   id="g10">
			<path
   style="fill:#2a4365;fill-opacity:1"
   id="path8"
   d="M 52,17 H 12 c -0.6,0 -1,0.4 -1,1 v 30 c 0,0.6 0.4,1 1,1 h 14.3 c 1,0 1.9,0.4 2.4,1.2 0.7,1.1 1.9,1.8 3.3,1.8 1.4,0 2.6,-0.7 3.3,-1.8 0.5,-0.8 1.5,-1.2 2.4,-1.2 H 52 c 0.6,0 1,-0.4 1,-1 V 18 c 0,-0.6 -0.4,-1 -1,-1 z"
   inkscape:connector-curvature="0" />
		</g>
	</g><g
     id="g18">
		<g
   id="g16">
			<path
   id="path14"
   d="m 14,28 v 18 h 16 c 1.1,0 2,0.9 2,2 0,-1.1 0.9,-2 2,-2 H 50 V 28 Z"
   inkscape:connector-curvature="0"
   style="fill:#e4e7ef" />
		</g>
	</g><g
     id="g24">
		<g
   id="g22">
			<path
   id="path20"
   d="m 35,13 c -1.7,0 -3,1.3 -3,3 0,-1.7 -1.3,-3 -3,-3 H 14 v 31 h 16 c 1.1,0 2,0.9 2,2 0,-1.1 0.9,-2 2,-2 H 50 V 13 Z"
   inkscape:connector-curvature="0"
   style="fill:#ffffff" />
		</g>
	</g><g
     transform="matrix(-1,0,0,1,64,0)"
     style="fill:#2a4365;fill-opacity:1"
     id="g30">
		<g
   style="fill:#2a4365;fill-opacity:1"
   id="g28">
			<rect
   style="fill:#2a4365;fill-opacity:1"
   id="rect26"
   height="7"
   width="4"
   y="16"
   x="18" />
		</g>
	</g><g
     transform="matrix(-1,0,0,1,64,0)"
     style="fill:#2a4365;fill-opacity:1"
     id="g36">
		<g
   style="fill:#2a4365;fill-opacity:1"
   id="g34">
			<path
   inkscape:connector-curvature="0"
   style="fill:#2a4365;fill-opacity:1"
   id="path32"
   d="M 29,26.5 H 18 c -0.3,0 -0.5,-0.2 -0.5,-0.5 0,-0.3 0.2,-0.5 0.5,-0.5 h 11 c 0.3,0 0.5,0.2 0.5,0.5 0,0.3 -0.2,0.5 -0.5,0.5 z" />
		</g>
	</g><g
     transform="matrix(-1,0,0,1,64,0)"
     style="fill:#2a4365;fill-opacity:1"
     id="g42">
		<g
   style="fill:#2a4365;fill-opacity:1"
   id="g40">
			<path
   inkscape:connector-curvature="0"
   style="fill:#2a4365;fill-opacity:1"
   id="path38"
   d="m 29,23.5 h -4.4 c -0.3,0 -0.5,-0.2 -0.5,-0.5 0,-0.3 0.2,-0.5 0.5,-0.5 H 29 c 0.3,0 0.5,0.2 0.5,0.5 0,0.3 -0.2,0.5 -0.5,0.5 z" />
		</g>
	</g><g
     transform="matrix(-1,0,0,1,64,0)"
     style="fill:#2a4365;fill-opacity:1"
     id="g48">
		<g
   style="fill:#2a4365;fill-opacity:1"
   id="g46">
			<path
   inkscape:connector-curvature="0"
   style="fill:#2a4365;fill-opacity:1"
   id="path44"
   d="m 29,20.5 h -4.4 c -0.3,0 -0.5,-0.2 -0.5,-0.5 0,-0.3 0.2,-0.5 0.5,-0.5 H 29 c 0.3,0 0.5,0.2 0.5,0.5 0,0.3 -0.2,0.5 -0.5,0.5 z" />
		</g>
	</g><g
     transform="matrix(-1,0,0,1,64,0)"
     style="fill:#2a4365;fill-opacity:1"
     id="g54">
		<g
   style="fill:#2a4365;fill-opacity:1"
   id="g52">
			<path
   inkscape:connector-curvature="0"
   style="fill:#2a4365;fill-opacity:1"
   id="path50"
   d="m 29,17.5 h -4.4 c -0.3,0 -0.5,-0.2 -0.5,-0.5 0,-0.3 0.2,-0.5 0.5,-0.5 H 29 c 0.3,0 0.5,0.2 0.5,0.5 0,0.3 -0.2,0.5 -0.5,0.5 z" />
		</g>
	</g><g
     transform="matrix(-1,0,0,1,64,0)"
     style="fill:#2a4365;fill-opacity:1"
     id="g60">
		<g
   style="fill:#2a4365;fill-opacity:1"
   id="g58">
			<path
   inkscape:connector-curvature="0"
   style="fill:#2a4365;fill-opacity:1"
   id="path56"
   d="M 29,29.5 H 18 c -0.3,0 -0.5,-0.2 -0.5,-0.5 0,-0.3 0.2,-0.5 0.5,-0.5 h 11 c 0.3,0 0.5,0.2 0.5,0.5 0,0.3 -0.2,0.5 -0.5,0.5 z" />
		</g>
	</g><g
     transform="matrix(-1,0,0,1,64,0)"
     style="fill:#2a4365;fill-opacity:1"
     id="g66">
		<g
   style="fill:#2a4365;fill-opacity:1"
   id="g64">
			<path
   inkscape:connector-curvature="0"
   style="fill:#2a4365;fill-opacity:1"
   id="path62"
   d="M 29,32.5 H 18 c -0.3,0 -0.5,-0.2 -0.5,-0.5 0,-0.3 0.2,-0.5 0.5,-0.5 h 11 c 0.3,0 0.5,0.2 0.5,0.5 0,0.3 -0.2,0.5 -0.5,0.5 z" />
		</g>
	</g><g
     transform="matrix(-1,0,0,1,64,0)"
     style="fill:#2a4365;fill-opacity:1"
     id="g72">
		<g
   style="fill:#2a4365;fill-opacity:1"
   id="g70">
			<path
   inkscape:connector-curvature="0"
   style="fill:#2a4365;fill-opacity:1"
   id="path68"
   d="M 29,35.5 H 18 c -0.3,0 -0.5,-0.2 -0.5,-0.5 0,-0.3 0.2,-0.5 0.5,-0.5 h 11 c 0.3,0 0.5,0.2 0.5,0.5 0,0.3 -0.2,0.5 -0.5,0.5 z" />
		</g>
	</g><g
     transform="matrix(-1,0,0,1,64,0)"
     style="fill:#2a4365;fill-opacity:1"
     id="g78">
		<g
   style="fill:#2a4365;fill-opacity:1"
   id="g76">
			<path
   inkscape:connector-curvature="0"
   style="fill:#2a4365;fill-opacity:1"
   id="path74"
   d="M 29,38.5 H 18 c -0.3,0 -0.5,-0.2 -0.5,-0.5 0,-0.3 0.2,-0.5 0.5,-0.5 h 11 c 0.3,0 0.5,0.2 0.5,0.5 0,0.3 -0.2,0.5 -0.5,0.5 z" />
		</g>
	</g><g
     transform="matrix(-1,0,0,1,64,0)"
     style="fill:#2a4365;fill-opacity:1"
     id="g84">
		<g
   style="fill:#2a4365;fill-opacity:1"
   id="g82">
			<path
   inkscape:connector-curvature="0"
   style="fill:#2a4365;fill-opacity:1"
   id="path80"
   d="M 29,41.5 H 18 c -0.3,0 -0.5,-0.2 -0.5,-0.5 0,-0.3 0.2,-0.5 0.5,-0.5 h 11 c 0.3,0 0.5,0.2 0.5,0.5 0,0.3 -0.2,0.5 -0.5,0.5 z" />
		</g>
	</g><g
     transform="matrix(-1,0,0,1,64,0)"
     style="fill:#2a4365;fill-opacity:1"
     id="g90">
		<g
   style="fill:#2a4365;fill-opacity:1"
   id="g88">
			<path
   inkscape:connector-curvature="0"
   style="fill:#2a4365;fill-opacity:1"
   id="path86"
   d="M 46,26.5 H 35 c -0.3,0 -0.5,-0.2 -0.5,-0.5 0,-0.3 0.2,-0.5 0.5,-0.5 h 11 c 0.3,0 0.5,0.2 0.5,0.5 0,0.3 -0.2,0.5 -0.5,0.5 z" />
		</g>
	</g><g
     transform="matrix(-1,0,0,1,64,0)"
     style="fill:#2a4365;fill-opacity:1"
     id="g96">
		<g
   style="fill:#2a4365;fill-opacity:1"
   id="g94">
			<path
   inkscape:connector-curvature="0"
   style="fill:#2a4365;fill-opacity:1"
   id="path92"
   d="M 46,29.5 H 35 c -0.3,0 -0.5,-0.2 -0.5,-0.5 0,-0.3 0.2,-0.5 0.5,-0.5 h 11 c 0.3,0 0.5,0.2 0.5,0.5 0,0.3 -0.2,0.5 -0.5,0.5 z" />
		</g>
	</g><g
     transform="matrix(-1,0,0,1,64,0)"
     style="fill:#2a4365;fill-opacity:1"
     id="g102">
		<g
   style="fill:#2a4365;fill-opacity:1"
   id="g100">
			<path
   inkscape:connector-curvature="0"
   style="fill:#2a4365;fill-opacity:1"
   id="path98"
   d="M 46,20.5 H 35 c -0.3,0 -0.5,-0.2 -0.5,-0.5 0,-0.3 0.2,-0.5 0.5,-0.5 h 11 c 0.3,0 0.5,0.2 0.5,0.5 0,0.3 -0.2,0.5 -0.5,0.5 z" />
		</g>
	</g><g
     transform="matrix(-1,0,0,1,64,0)"
     style="fill:#2a4365;fill-opacity:1"
     id="g108">
		<g
   style="fill:#2a4365;fill-opacity:1"
   id="g106">
			<path
   inkscape:connector-curvature="0"
   style="fill:#2a4365;fill-opacity:1"
   id="path104"
   d="M 46,17.5 H 35 c -0.3,0 -0.5,-0.2 -0.5,-0.5 0,-0.3 0.2,-0.5 0.5,-0.5 h 11 c 0.3,0 0.5,0.2 0.5,0.5 0,0.3 -0.2,0.5 -0.5,0.5 z" />
		</g>
	</g><g
     transform="matrix(-1,0,0,1,64,0)"
     style="fill:#2a4365;fill-opacity:1"
     id="g114">
		<g
   style="fill:#2a4365;fill-opacity:1"
   id="g112">
			<path
   inkscape:connector-curvature="0"
   style="fill:#2a4365;fill-opacity:1"
   id="path110"
   d="M 46,23.5 H 35 c -0.3,0 -0.5,-0.2 -0.5,-0.5 0,-0.3 0.2,-0.5 0.5,-0.5 h 11 c 0.3,0 0.5,0.2 0.5,0.5 0,0.3 -0.2,0.5 -0.5,0.5 z" />
		</g>
	</g><g
     transform="matrix(-1,0,0,1,64,0)"
     style="fill:#2a4365;fill-opacity:1"
     id="g120">
		<g
   style="fill:#2a4365;fill-opacity:1"
   id="g118">
			<path
   inkscape:connector-curvature="0"
   style="fill:#2a4365;fill-opacity:1"
   id="path116"
   d="M 46,32.5 H 35 c -0.3,0 -0.5,-0.2 -0.5,-0.5 0,-0.3 0.2,-0.5 0.5,-0.5 h 11 c 0.3,0 0.5,0.2 0.5,0.5 0,0.3 -0.2,0.5 -0.5,0.5 z" />
		</g>
	</g><g
     transform="matrix(-1,0,0,1,64,0)"
     style="fill:#2a4365;fill-opacity:1"
     id="g126">
		<g
   style="fill:#2a4365;fill-opacity:1"
   id="g124">
			<path
   inkscape:connector-curvature="0"
   style="fill:#2a4365;fill-opacity:1"
   id="path122"
   d="M 46,35.5 H 35 c -0.3,0 -0.5,-0.2 -0.5,-0.5 0,-0.3 0.2,-0.5 0.5,-0.5 h 11 c 0.3,0 0.5,0.2 0.5,0.5 0,0.3 -0.2,0.5 -0.5,0.5 z" />
		</g>
	</g><g
     transform="matrix(-1,0,0,1,64,0)"
     style="fill:#2a4365;fill-opacity:1"
     id="g132">
		<g
   style="fill:#2a4365;fill-opacity:1"
   id="g130">
			<path
   inkscape:connector-curvature="0"
   style="fill:#2a4365;fill-opacity:1"
   id="path128"
   d="M 46,38.5 H 35 c -0.3,0 -0.5,-0.2 -0.5,-0.5 0,-0.3 0.2,-0.5 0.5,-0.5 h 11 c 0.3,0 0.5,0.2 0.5,0.5 0,0.3 -0.2,0.5 -0.5,0.5 z" />
		</g>
	</g><g
     transform="matrix(-1,0,0,1,64,0)"
     style="fill:#2a4365;fill-opacity:1"
     id="g138">
		<g
   style="fill:#2a4365;fill-opacity:1"
   id="g136">
			<path
   inkscape:connector-curvature="0"
   style="fill:#2a4365;fill-opacity:1"
   id="path134"
   d="M 46,41.5 H 35 c -0.3,0 -0.5,-0.2 -0.5,-0.5 0,-0.3 0.2,-0.5 0.5,-0.5 h 11 c 0.3,0 0.5,0.2 0.5,0.5 0,0.3 -0.2,0.5 -0.5,0.5 z" />
		</g>
	</g></g></g>
</svg>