<?xml version="1.0" encoding="UTF-8" standalone="no"?>
<!-- Svg Vector Icons : http://www.onlinewebfonts.com/icon -->

<svg
   xmlns:dc="http://purl.org/dc/elements/1.1/"
   xmlns:cc="http://creativecommons.org/ns#"
   xmlns:rdf="http://www.w3.org/1999/02/22-rdf-syntax-ns#"
   xmlns:svg="http://www.w3.org/2000/svg"
   xmlns="http://www.w3.org/2000/svg"
   xmlns:sodipodi="http://sodipodi.sourceforge.net/DTD/sodipodi-0.dtd"
   xmlns:inkscape="http://www.inkscape.org/namespaces/inkscape"
   version="1.1"
   x="0px"
   y="0px"
   viewBox="0 0 1410.6787 1410.6787"
   enable-background="new 0 0 1000 1000"
   xml:space="preserve"
   id="svg16"
   sodipodi:docname="logo.svg"
   inkscape:version="0.92.4 (5da689c313, 2019-01-14)"
   width="1410.6787"
   height="1410.6787"><defs
   id="defs20" /><sodipodi:namedview
   pagecolor="#ffffff"
   bordercolor="#666666"
   borderopacity="1"
   objecttolerance="10"
   gridtolerance="10"
   guidetolerance="10"
   inkscape:pageopacity="0"
   inkscape:pageshadow="2"
   inkscape:window-width="1920"
   inkscape:window-height="1023"
   id="namedview18"
   showgrid="false"
   inkscape:zoom="0.31685264"
   inkscape:cx="539.39299"
   inkscape:cy="830.63386"
   inkscape:window-x="0"
   inkscape:window-y="0"
   inkscape:window-maximized="1"
   inkscape:current-layer="svg16"
   fit-margin-top="0"
   fit-margin-left="0"
   fit-margin-right="0"
   fit-margin-bottom="0" />
<metadata
   id="metadata2"> Svg Vector Icons : http://www.onlinewebfonts.com/icon <rdf:RDF><cc:Work
     rdf:about=""><dc:format>image/svg+xml</dc:format><dc:type
       rdf:resource="http://purl.org/dc/dcmitype/StillImage" /><dc:title /></cc:Work></rdf:RDF></metadata>
<circle
   style="fill:#4299e1;fill-opacity:1;stroke:none;stroke-width:5;stroke-linecap:round;stroke-linejoin:round"
   id="path827"
   cx="705.33936"
   cy="705.33936"
   r="705.33936"
   inkscape:export-xdpi="97.43"
   inkscape:export-ydpi="97.43" /><g
   id="g14"
   style="fill:#ffffff;fill-opacity:1"
   transform="translate(205.33936,205.34436)"
   inkscape:export-xdpi="97.43"
   inkscape:export-ydpi="97.43"><g
     transform="matrix(0.1,0,0,-0.1,0,511)"
     id="g12"
     style="fill:#ffffff;fill-opacity:1"><path
       d="m 7544.5,3790.2 -921.8,-921.8 -168,32 C 5069,3172.3 3649.3,3020.4 2379.5,2460.5 1849.6,2226.6 1323.7,1906.6 885.8,1550.7 633.9,1346.7 359.9,1094.8 359.9,1066.8 c 0,-12 184,-206 409.9,-431.9 l 408,-407.9 146,140 c 781.8,749.8 1835.6,1255.7 2981.4,1429.7 289.9,44 1071.8,74 1199.8,44 l 74,-16 -404,-404 -405.9,-403.9 -247.9,-32 C 3779.3,890.8 3083.5,632.9 2483.6,230.9 2297.6,104.9 1975.7,-155 1859.7,-273 l -90,-92 405.9,-405.9 403.9,-403.9 L 1339.7,-2414.5 100,-3654.2 519.9,-4074.1 939.8,-4494 5125,-308.9 l 4183.1,4183.2 -419.9,419.9 -419.9,419.9 z"
       id="path4"
       style="fill:#ffffff;fill-opacity:1"
       inkscape:connector-curvature="0" /><path
       d="m 8112.4,1678.7 c -228,-228 -413.9,-419.9 -413.9,-425.9 0,-6 124,-86 275.9,-176 325.9,-194 581.9,-381.9 879.8,-645.9 l 218,-192 413.9,413.9 413.9,413.9 -136,130 c -180,172 -459.9,403.9 -669.9,553.9 -222,156 -517.9,343.9 -545.9,343.9 -9.9,0.1 -207.9,-185.9 -435.8,-415.8 z"
       id="path6"
       style="fill:#ffffff;fill-opacity:1"
       inkscape:connector-curvature="0" /><path
       d="m 6598.7,165 c -246,-246 -443.9,-451.9 -439.9,-457.9 6,-4 100,-42 210,-82 409.9,-152 813.8,-395.9 1125.8,-681.9 l 148,-134 419.9,417.9 417.9,417.9 -126,116 c -300,278 -697.9,554 -1065.9,741.9 -120,62 -224,112 -230,112 -6,0 -211.9,-202 -459.8,-449.9 z"
       id="path8"
       style="fill:#ffffff;fill-opacity:1"
       inkscape:connector-curvature="0" /><path
       d="m 4663.1,-1770.6 c -385.9,-385.9 -703.9,-711.9 -703.9,-719.9 0,-18 1143.8,-1233.7 1163.8,-1233.7 6,0 217.9,218 467.9,485.9 249.9,265.9 665.9,695.8 921.8,955.8 l 469.9,471.9 -108,96 c -251.9,228 -585.9,419.9 -919.8,531.9 -184,62 -437.9,118 -531.9,118 -44,-0.1 -183.9,-130 -759.8,-705.9 z"
       id="path10"
       style="fill:#ffffff;fill-opacity:1"
       inkscape:connector-curvature="0" /></g></g>
<g
   id="g833"
   transform="translate(214.60963,226.58027)"
   style="fill:#ffffff;fill-opacity:0"
   inkscape:export-xdpi="97.43"
   inkscape:export-ydpi="97.43"><path
     id="path831"
     d="M 926,11.1 C 747.3,11.1 623.7,72.3 500,133.4 379.4,72.3 256.6,10.4 74,10.4 40.7,10.4 10,41 10,72.3 c 0,0 0,654.9 0,733.9 0,44.5 32.4,64.1 64,64.1 183.8,0 303.7,58.3 427.4,119.4 C 625.5,928.3 748.6,869 930.2,869 965,869 990,840.3 990,806.2 990,749.3 990,126.8 990,72.3 990,45.9 956,11.1 926,11.1 Z M 73.7,805.7 c 0,-123.9 0,-733.4 0,-733.4 138,3.9 346,73 394.1,123.9 0,95.2 1.6,688.4 1.6,697.5 -80.7,-39.8 -235.6,-90.6 -395.7,-88 z m 855.2,0 c -160.1,-2.6 -315,48.2 -395.8,88 0,-9.1 1.6,-602.4 1.6,-697.5 48.2,-50.8 256.1,-120 394.1,-123.9 0.1,0 0.1,609.5 0.1,733.4 z"
     inkscape:connector-curvature="0"
     style="fill:#ffffff;fill-opacity:0" /></g></svg>