<?xml version="1.0" encoding="UTF-8" standalone="no"?>
<!-- Generator: Adobe Illustrator 18.0.0, SVG Export Plug-In . SVG Version: 6.00 Build 0)  -->

<svg
   xmlns:dc="http://purl.org/dc/elements/1.1/"
   xmlns:cc="http://creativecommons.org/ns#"
   xmlns:rdf="http://www.w3.org/1999/02/22-rdf-syntax-ns#"
   xmlns:svg="http://www.w3.org/2000/svg"
   xmlns="http://www.w3.org/2000/svg"
   xmlns:sodipodi="http://sodipodi.sourceforge.net/DTD/sodipodi-0.dtd"
   xmlns:inkscape="http://www.inkscape.org/namespaces/inkscape"
   version="1.1"
   id="Layer_1"
   x="0px"
   y="0px"
   viewBox="0 0 64 64"
   enable-background="new 0 0 64 64"
   xml:space="preserve"
   sodipodi:docname="logo.svg"
   inkscape:version="0.92.3 (2405546, 2018-03-11)"><metadata
   id="metadata147"><rdf:RDF><cc:Work
       rdf:about=""><dc:format>image/svg+xml</dc:format><dc:type
         rdf:resource="http://purl.org/dc/dcmitype/StillImage" /></cc:Work></rdf:RDF></metadata><defs
   id="defs145" /><sodipodi:namedview
   pagecolor="#ffffff"
   bordercolor="#666666"
   borderopacity="1"
   objecttolerance="10"
   gridtolerance="10"
   guidetolerance="10"
   inkscape:pageopacity="0"
   inkscape:pageshadow="2"
   inkscape:window-width="1920"
   inkscape:window-height="1029"
   id="namedview143"
   showgrid="false"
   inkscape:zoom="14.75"
   inkscape:cx="38.287976"
   inkscape:cy="33.092751"
   inkscape:window-x="0"
   inkscape:window-y="27"
   inkscape:window-maximized="1"
   inkscape:current-layer="g140" />
<g
   id="g140">
	<g
   id="g6"
   style="fill:#4299e1;fill-opacity:1">
		<g
   id="g4"
   style="fill:#4299e1;fill-opacity:1">
			<path
   fill="#4AC694"
   d="M32,0c17.7,0,32,14.3,32,32S49.7,64,32,64S0,49.7,0,32S14.3,0,32,0z"
   id="path2"
   style="fill:#4299e1;fill-opacity:1" />
		</g>
	</g>
	<g
   id="g12"
   style="fill:#2a4365;fill-opacity:1">
		<g
   id="g10"
   style="fill:#2a4365;fill-opacity:1">
			<path
   fill="#424C72"
   d="M52,17H12c-0.6,0-1,0.4-1,1v30c0,0.6,0.4,1,1,1h14.3c1,0,1.9,0.4,2.4,1.2c0.7,1.1,1.9,1.8,3.3,1.8     s2.6-0.7,3.3-1.8c0.5-0.8,1.5-1.2,2.4-1.2H52c0.6,0,1-0.4,1-1V18C53,17.4,52.6,17,52,17z"
   id="path8"
   style="fill:#2a4365;fill-opacity:1" />
		</g>
	</g>
	<g
   id="g18">
		<g
   id="g16">
			<path
   fill="#E4E7EF"
   d="M14,28v18h16c1.1,0,2,0.9,2,2c0-1.1,0.9-2,2-2h16V28H14z"
   id="path14" />
		</g>
	</g>
	<g
   id="g24">
		<g
   id="g22">
			<path
   fill="#FFFFFF"
   d="M35,13c-1.7,0-3,1.3-3,3c0-1.7-1.3-3-3-3H14v31h16c1.1,0,2,0.9,2,2c0-1.1,0.9-2,2-2h16V13H35z"
   id="path20" />
		</g>
	</g>
	<g
   id="g30"
   style="fill:#2a4365;fill-opacity:1"
   transform="matrix(-1,0,0,1,64,0)">
		<g
   id="g28"
   style="fill:#2a4365;fill-opacity:1">
			<rect
   x="18"
   y="16"
   width="4"
   height="7"
   id="rect26"
   style="fill:#2a4365;fill-opacity:1" />
		</g>
	</g>
	<g
   id="g36"
   style="fill:#2a4365;fill-opacity:1"
   transform="matrix(-1,0,0,1,64,0)">
		<g
   id="g34"
   style="fill:#2a4365;fill-opacity:1">
			<path
   d="M 29,26.5 H 18 c -0.3,0 -0.5,-0.2 -0.5,-0.5 0,-0.3 0.2,-0.5 0.5,-0.5 h 11 c 0.3,0 0.5,0.2 0.5,0.5 0,0.3 -0.2,0.5 -0.5,0.5 z"
   id="path32"
   style="fill:#2a4365;fill-opacity:1"
   inkscape:connector-curvature="0" />
		</g>
	</g>
	<g
   id="g42"
   style="fill:#2a4365;fill-opacity:1"
   transform="matrix(-1,0,0,1,64,0)">
		<g
   id="g40"
   style="fill:#2a4365;fill-opacity:1">
			<path
   d="m 29,23.5 h -4.4 c -0.3,0 -0.5,-0.2 -0.5,-0.5 0,-0.3 0.2,-0.5 0.5,-0.5 H 29 c 0.3,0 0.5,0.2 0.5,0.5 0,0.3 -0.2,0.5 -0.5,0.5 z"
   id="path38"
   style="fill:#2a4365;fill-opacity:1"
   inkscape:connector-curvature="0" />
		</g>
	</g>
	<g
   id="g48"
   style="fill:#2a4365;fill-opacity:1"
   transform="matrix(-1,0,0,1,64,0)">
		<g
   id="g46"
   style="fill:#2a4365;fill-opacity:1">
			<path
   d="m 29,20.5 h -4.4 c -0.3,0 -0.5,-0.2 -0.5,-0.5 0,-0.3 0.2,-0.5 0.5,-0.5 H 29 c 0.3,0 0.5,0.2 0.5,0.5 0,0.3 -0.2,0.5 -0.5,0.5 z"
   id="path44"
   style="fill:#2a4365;fill-opacity:1"
   inkscape:connector-curvature="0" />
		</g>
	</g>
	<g
   id="g54"
   style="fill:#2a4365;fill-opacity:1"
   transform="matrix(-1,0,0,1,64,0)">
		<g
   id="g52"
   style="fill:#2a4365;fill-opacity:1">
			<path
   d="m 29,17.5 h -4.4 c -0.3,0 -0.5,-0.2 -0.5,-0.5 0,-0.3 0.2,-0.5 0.5,-0.5 H 29 c 0.3,0 0.5,0.2 0.5,0.5 0,0.3 -0.2,0.5 -0.5,0.5 z"
   id="path50"
   style="fill:#2a4365;fill-opacity:1"
   inkscape:connector-curvature="0" />
		</g>
	</g>
	<g
   id="g60"
   style="fill:#2a4365;fill-opacity:1"
   transform="matrix(-1,0,0,1,64,0)">
		<g
   id="g58"
   style="fill:#2a4365;fill-opacity:1">
			<path
   d="M 29,29.5 H 18 c -0.3,0 -0.5,-0.2 -0.5,-0.5 0,-0.3 0.2,-0.5 0.5,-0.5 h 11 c 0.3,0 0.5,0.2 0.5,0.5 0,0.3 -0.2,0.5 -0.5,0.5 z"
   id="path56"
   style="fill:#2a4365;fill-opacity:1"
   inkscape:connector-curvature="0" />
		</g>
	</g>
	<g
   id="g66"
   style="fill:#2a4365;fill-opacity:1"
   transform="matrix(-1,0,0,1,64,0)">
		<g
   id="g64"
   style="fill:#2a4365;fill-opacity:1">
			<path
   d="M 29,32.5 H 18 c -0.3,0 -0.5,-0.2 -0.5,-0.5 0,-0.3 0.2,-0.5 0.5,-0.5 h 11 c 0.3,0 0.5,0.2 0.5,0.5 0,0.3 -0.2,0.5 -0.5,0.5 z"
   id="path62"
   style="fill:#2a4365;fill-opacity:1"
   inkscape:connector-curvature="0" />
		</g>
	</g>
	<g
   id="g72"
   style="fill:#2a4365;fill-opacity:1"
   transform="matrix(-1,0,0,1,64,0)">
		<g
   id="g70"
   style="fill:#2a4365;fill-opacity:1">
			<path
   d="M 29,35.5 H 18 c -0.3,0 -0.5,-0.2 -0.5,-0.5 0,-0.3 0.2,-0.5 0.5,-0.5 h 11 c 0.3,0 0.5,0.2 0.5,0.5 0,0.3 -0.2,0.5 -0.5,0.5 z"
   id="path68"
   style="fill:#2a4365;fill-opacity:1"
   inkscape:connector-curvature="0" />
		</g>
	</g>
	<g
   id="g78"
   style="fill:#2a4365;fill-opacity:1"
   transform="matrix(-1,0,0,1,64,0)">
		<g
   id="g76"
   style="fill:#2a4365;fill-opacity:1">
			<path
   d="M 29,38.5 H 18 c -0.3,0 -0.5,-0.2 -0.5,-0.5 0,-0.3 0.2,-0.5 0.5,-0.5 h 11 c 0.3,0 0.5,0.2 0.5,0.5 0,0.3 -0.2,0.5 -0.5,0.5 z"
   id="path74"
   style="fill:#2a4365;fill-opacity:1"
   inkscape:connector-curvature="0" />
		</g>
	</g>
	<g
   id="g84"
   style="fill:#2a4365;fill-opacity:1"
   transform="matrix(-1,0,0,1,64,0)">
		<g
   id="g82"
   style="fill:#2a4365;fill-opacity:1">
			<path
   d="M 29,41.5 H 18 c -0.3,0 -0.5,-0.2 -0.5,-0.5 0,-0.3 0.2,-0.5 0.5,-0.5 h 11 c 0.3,0 0.5,0.2 0.5,0.5 0,0.3 -0.2,0.5 -0.5,0.5 z"
   id="path80"
   style="fill:#2a4365;fill-opacity:1"
   inkscape:connector-curvature="0" />
		</g>
	</g>
	<g
   id="g90"
   style="fill:#2a4365;fill-opacity:1"
   transform="matrix(-1,0,0,1,64,0)">
		<g
   id="g88"
   style="fill:#2a4365;fill-opacity:1">
			<path
   d="M 46,26.5 H 35 c -0.3,0 -0.5,-0.2 -0.5,-0.5 0,-0.3 0.2,-0.5 0.5,-0.5 h 11 c 0.3,0 0.5,0.2 0.5,0.5 0,0.3 -0.2,0.5 -0.5,0.5 z"
   id="path86"
   style="fill:#2a4365;fill-opacity:1"
   inkscape:connector-curvature="0" />
		</g>
	</g>
	<g
   id="g96"
   style="fill:#2a4365;fill-opacity:1"
   transform="matrix(-1,0,0,1,64,0)">
		<g
   id="g94"
   style="fill:#2a4365;fill-opacity:1">
			<path
   d="M 46,29.5 H 35 c -0.3,0 -0.5,-0.2 -0.5,-0.5 0,-0.3 0.2,-0.5 0.5,-0.5 h 11 c 0.3,0 0.5,0.2 0.5,0.5 0,0.3 -0.2,0.5 -0.5,0.5 z"
   id="path92"
   style="fill:#2a4365;fill-opacity:1"
   inkscape:connector-curvature="0" />
		</g>
	</g>
	<g
   id="g102"
   style="fill:#2a4365;fill-opacity:1"
   transform="matrix(-1,0,0,1,64,0)">
		<g
   id="g100"
   style="fill:#2a4365;fill-opacity:1">
			<path
   d="M 46,20.5 H 35 c -0.3,0 -0.5,-0.2 -0.5,-0.5 0,-0.3 0.2,-0.5 0.5,-0.5 h 11 c 0.3,0 0.5,0.2 0.5,0.5 0,0.3 -0.2,0.5 -0.5,0.5 z"
   id="path98"
   style="fill:#2a4365;fill-opacity:1"
   inkscape:connector-curvature="0" />
		</g>
	</g>
	<g
   id="g108"
   style="fill:#2a4365;fill-opacity:1"
   transform="matrix(-1,0,0,1,64,0)">
		<g
   id="g106"
   style="fill:#2a4365;fill-opacity:1">
			<path
   d="M 46,17.5 H 35 c -0.3,0 -0.5,-0.2 -0.5,-0.5 0,-0.3 0.2,-0.5 0.5,-0.5 h 11 c 0.3,0 0.5,0.2 0.5,0.5 0,0.3 -0.2,0.5 -0.5,0.5 z"
   id="path104"
   style="fill:#2a4365;fill-opacity:1"
   inkscape:connector-curvature="0" />
		</g>
	</g>
	<g
   id="g114"
   style="fill:#2a4365;fill-opacity:1"
   transform="matrix(-1,0,0,1,64,0)">
		<g
   id="g112"
   style="fill:#2a4365;fill-opacity:1">
			<path
   d="M 46,23.5 H 35 c -0.3,0 -0.5,-0.2 -0.5,-0.5 0,-0.3 0.2,-0.5 0.5,-0.5 h 11 c 0.3,0 0.5,0.2 0.5,0.5 0,0.3 -0.2,0.5 -0.5,0.5 z"
   id="path110"
   style="fill:#2a4365;fill-opacity:1"
   inkscape:connector-curvature="0" />
		</g>
	</g>
	<g
   id="g120"
   style="fill:#2a4365;fill-opacity:1"
   transform="matrix(-1,0,0,1,64,0)">
		<g
   id="g118"
   style="fill:#2a4365;fill-opacity:1">
			<path
   d="M 46,32.5 H 35 c -0.3,0 -0.5,-0.2 -0.5,-0.5 0,-0.3 0.2,-0.5 0.5,-0.5 h 11 c 0.3,0 0.5,0.2 0.5,0.5 0,0.3 -0.2,0.5 -0.5,0.5 z"
   id="path116"
   style="fill:#2a4365;fill-opacity:1"
   inkscape:connector-curvature="0" />
		</g>
	</g>
	<g
   id="g126"
   style="fill:#2a4365;fill-opacity:1"
   transform="matrix(-1,0,0,1,64,0)">
		<g
   id="g124"
   style="fill:#2a4365;fill-opacity:1">
			<path
   d="M 46,35.5 H 35 c -0.3,0 -0.5,-0.2 -0.5,-0.5 0,-0.3 0.2,-0.5 0.5,-0.5 h 11 c 0.3,0 0.5,0.2 0.5,0.5 0,0.3 -0.2,0.5 -0.5,0.5 z"
   id="path122"
   style="fill:#2a4365;fill-opacity:1"
   inkscape:connector-curvature="0" />
		</g>
	</g>
	<g
   id="g132"
   style="fill:#2a4365;fill-opacity:1"
   transform="matrix(-1,0,0,1,64,0)">
		<g
   id="g130"
   style="fill:#2a4365;fill-opacity:1">
			<path
   d="M 46,38.5 H 35 c -0.3,0 -0.5,-0.2 -0.5,-0.5 0,-0.3 0.2,-0.5 0.5,-0.5 h 11 c 0.3,0 0.5,0.2 0.5,0.5 0,0.3 -0.2,0.5 -0.5,0.5 z"
   id="path128"
   style="fill:#2a4365;fill-opacity:1"
   inkscape:connector-curvature="0" />
		</g>
	</g>
	<g
   id="g138"
   style="fill:#2a4365;fill-opacity:1"
   transform="matrix(-1,0,0,1,64,0)">
		<g
   id="g136"
   style="fill:#2a4365;fill-opacity:1">
			<path
   d="M 46,41.5 H 35 c -0.3,0 -0.5,-0.2 -0.5,-0.5 0,-0.3 0.2,-0.5 0.5,-0.5 h 11 c 0.3,0 0.5,0.2 0.5,0.5 0,0.3 -0.2,0.5 -0.5,0.5 z"
   id="path134"
   style="fill:#2a4365;fill-opacity:1"
   inkscape:connector-curvature="0" />
		</g>
	</g>
</g>
</svg>