<?xml version="1.0" standalone="no"?>
<!DOCTYPE svg PUBLIC "-//W3C//DTD SVG 20010904//EN"
 "http://www.w3.org/TR/2001/REC-SVG-20010904/DTD/svg10.dtd">
<svg version="1.0" xmlns="http://www.w3.org/2000/svg"
 width="1432.000000pt" height="1432.000000pt" viewBox="0 0 1432.000000 1432.000000"
 preserveAspectRatio="xMidYMid meet">
<metadata>
Created by potrace 1.11, written by Peter Selinger 2001-2013
</metadata>
<g transform="translate(0.000000,1432.000000) scale(0.100000,-0.100000)"
fill="#000000" stroke="none">
<path d="M6860 14314 c-306 -20 -393 -27 -505 -40 -1310 -150 -2552 -656
-3589 -1463 -428 -333 -845 -743 -1182 -1161 -788 -979 -1307 -2153 -1498
-3390 -62 -403 -80 -651 -80 -1100 0 -449 18 -697 80 -1100 191 -1237 710
-2411 1498 -3390 337 -419 756 -830 1182 -1161 1122 -871 2445 -1379 3884
-1491 212 -16 818 -16 1025 0 320 26 623 68 920 128 2628 537 4738 2504 5460
5089 181 649 258 1215 259 1910 1 394 -8 557 -50 893 -229 1851 -1174 3547
-2624 4706 -1120 896 -2444 1424 -3890 1551 -163 15 -766 27 -890 19z m4250
-2909 l425 -425 -4248 -4248 -4247 -4247 -427 428 -428 427 1258 1258 1257
1257 -410 410 -410 410 83 83 c146 149 497 431 691 556 346 223 684 385 1076
516 331 111 621 176 1000 225 l195 25 407 407 c224 224 404 411 400 414 -45
45 -771 31 -1217 -22 -140 -17 -444 -76 -620 -121 -968 -245 -1804 -702 -2493
-1363 l-123 -118 -151 149 c-243 241 -678 695 -678 707 -1 27 377 367 610 550
378 297 855 590 1301 799 1317 616 2786 793 4260 513 l184 -35 935 935 c514
514 937 935 940 935 3 0 196 -191 430 -425z m-241 -2286 c253 -152 558 -368
801 -569 143 -118 460 -406 460 -418 0 -4 -188 -195 -417 -424 l-418 -417
-190 166 c-386 337 -532 443 -1060 768 -80 49 -144 93 -143 97 2 4 104 112
227 239 276 284 616 609 638 609 9 0 55 -23 102 -51z m-1466 -1520 c435 -218
811 -475 1179 -808 58 -53 107 -98 107 -101 1 -3 -189 -195 -422 -428 l-423
-423 -130 117 c-345 310 -709 533 -1159 709 -110 43 -204 81 -209 86 -5 4 83
103 195 220 226 235 698 699 711 699 4 0 72 -32 151 -71z m-1623 -1660 c500
-99 937 -321 1335 -676 l59 -53 -390 -392 c-396 -400 -670 -683 -1121 -1158
-138 -146 -280 -294 -316 -328 l-65 -64 -30 29 c-82 77 -836 875 -1049 1111
-51 56 -93 107 -93 113 0 6 148 162 329 347 564 576 1014 1016 1099 1072 53
35 63 35 242 -1z"/>
</g>
</svg>
