<?xml version="1.0" standalone="no"?>
<!DOCTYPE svg PUBLIC "-//W3C//DTD SVG 20010904//EN"
 "http://www.w3.org/TR/2001/REC-SVG-20010904/DTD/svg10.dtd">
<svg version="1.0" xmlns="http://www.w3.org/2000/svg"
 width="1024.000000pt" height="1024.000000pt" viewBox="0 0 1024.000000 1024.000000"
 preserveAspectRatio="xMidYMid meet">
<metadata>
Created by potrace 1.11, written by Peter Selinger 2001-2013
</metadata>
<g transform="translate(0.000000,1024.000000) scale(0.100000,-0.100000)"
fill="#000000" stroke="none">
<path d="M4910 10234 c-1194 -52 -2343 -520 -3210 -1306 -669 -607 -1150
-1340 -1430 -2178 -182 -543 -263 -1043 -263 -1620 -1 -589 81 -1096 262
-1640 353 -1056 1037 -1958 1971 -2602 640 -440 1444 -745 2220 -842 434 -54
892 -54 1320 0 1016 128 2006 583 2762 1268 849 770 1410 1774 1612 2886 91
504 106 1061 40 1580 -128 1016 -583 2006 -1268 2762 -878 968 -2042 1552
-3336 1672 -161 16 -533 26 -680 20z m-153 -2084 c124 -29 246 -124 306 -237
19 -38 38 -85 42 -105 9 -48 21 -48 30 -2 20 108 137 255 240 303 112 53 61
51 1388 51 l1237 0 0 -2640 0 -2640 -1303 0 c-1426 0 -1350 3 -1441 -59 -52
-36 -112 -119 -122 -168 -9 -44 -16 -41 -32 8 -29 94 -114 177 -210 205 -37
12 -277 14 -1349 14 l-1303 0 0 2640 0 2640 1238 0 c766 0 1253 -4 1279 -10z"/>
<path d="M6720 7120 l0 -560 320 0 320 0 0 560 0 560 -320 0 -320 0 0 -560z"/>
<path d="M2825 7575 c-16 -15 -25 -36 -25 -55 0 -19 9 -40 25 -55 l24 -25 911
0 911 0 24 25 c16 15 25 36 25 55 0 19 -9 40 -25 55 l-24 25 -911 0 -911 0
-24 -25z"/>
<path d="M5545 7575 c-16 -15 -25 -36 -25 -55 0 -19 9 -40 25 -55 l24 -25 379
0 c369 0 380 1 406 21 20 16 26 29 26 59 0 30 -6 43 -26 59 -26 20 -37 21
-406 21 l-379 0 -24 -25z"/>
<path d="M2825 7095 c-16 -15 -25 -36 -25 -55 0 -19 9 -40 25 -55 l24 -25 911
0 911 0 24 25 c16 15 25 36 25 55 0 19 -9 40 -25 55 l-24 25 -911 0 -911 0
-24 -25z"/>
<path d="M5545 7095 c-16 -15 -25 -36 -25 -55 0 -19 9 -40 25 -55 l24 -25 379
0 c369 0 380 1 406 21 20 16 26 29 26 59 0 30 -6 43 -26 59 -26 20 -37 21
-406 21 l-379 0 -24 -25z"/>
<path d="M2825 6615 c-16 -15 -25 -36 -25 -55 0 -19 9 -40 25 -55 l24 -25 911
0 911 0 24 25 c16 15 25 36 25 55 0 19 -9 40 -25 55 l-24 25 -911 0 -911 0
-24 -25z"/>
<path d="M5545 6615 c-16 -15 -25 -36 -25 -55 0 -19 9 -40 25 -55 l24 -25 379
0 c369 0 380 1 406 21 20 16 26 29 26 59 0 30 -6 43 -26 59 -26 20 -37 21
-406 21 l-379 0 -24 -25z"/>
<path d="M2825 6135 c-16 -15 -25 -36 -25 -55 0 -19 9 -40 25 -55 l24 -25 911
0 911 0 24 25 c16 15 25 36 25 55 0 19 -9 40 -25 55 l-24 25 -911 0 -911 0
-24 -25z"/>
<path d="M5545 6135 c-16 -15 -25 -36 -25 -55 0 -19 9 -40 25 -55 l24 -25 911
0 911 0 24 25 c16 15 25 36 25 55 0 19 -9 40 -25 55 l-24 25 -911 0 -911 0
-24 -25z"/>
<path d="M2825 5655 c-16 -15 -25 -36 -25 -55 0 -19 9 -40 25 -55 l24 -25 911
0 911 0 24 25 c16 15 25 36 25 55 0 19 -9 40 -25 55 l-24 25 -911 0 -911 0
-24 -25z"/>
<path d="M5545 5655 c-16 -15 -25 -36 -25 -55 0 -19 9 -40 25 -55 l24 -25 911
0 911 0 24 25 c16 15 25 36 25 55 0 19 -9 40 -25 55 l-24 25 -911 0 -911 0
-24 -25z"/>
<path d="M2825 5175 c-16 -15 -25 -36 -25 -55 0 -19 9 -40 25 -55 l24 -25 911
0 911 0 24 25 c16 15 25 36 25 55 0 19 -9 40 -25 55 l-24 25 -911 0 -911 0
-24 -25z"/>
<path d="M5545 5175 c-16 -15 -25 -36 -25 -55 0 -19 9 -40 25 -55 l24 -25 911
0 911 0 24 25 c16 15 25 36 25 55 0 19 -9 40 -25 55 l-24 25 -911 0 -911 0
-24 -25z"/>
<path d="M2825 4695 c-16 -15 -25 -36 -25 -55 0 -19 9 -40 25 -55 l24 -25 911
0 911 0 24 25 c16 15 25 36 25 55 0 19 -9 40 -25 55 l-24 25 -911 0 -911 0
-24 -25z"/>
<path d="M5545 4695 c-16 -15 -25 -36 -25 -55 0 -19 9 -40 25 -55 l24 -25 911
0 911 0 24 25 c16 15 25 36 25 55 0 19 -9 40 -25 55 l-24 25 -911 0 -911 0
-24 -25z"/>
<path d="M2825 4215 c-16 -15 -25 -36 -25 -55 0 -19 9 -40 25 -55 l24 -25 911
0 911 0 24 25 c16 15 25 36 25 55 0 19 -9 40 -25 55 l-24 25 -911 0 -911 0
-24 -25z"/>
<path d="M5545 4215 c-16 -15 -25 -36 -25 -55 0 -19 9 -40 25 -55 l24 -25 911
0 911 0 24 25 c16 15 25 36 25 55 0 19 -9 40 -25 55 l-24 25 -911 0 -911 0
-24 -25z"/>
<path d="M2825 3735 c-16 -15 -25 -36 -25 -55 0 -19 9 -40 25 -55 l24 -25 911
0 911 0 24 25 c16 15 25 36 25 55 0 19 -9 40 -25 55 l-24 25 -911 0 -911 0
-24 -25z"/>
<path d="M5545 3735 c-16 -15 -25 -36 -25 -55 0 -19 9 -40 25 -55 l24 -25 911
0 911 0 24 25 c16 15 25 36 25 55 0 19 -9 40 -25 55 l-24 25 -911 0 -911 0
-24 -25z"/>
</g>
</svg>
